<svg width="196" height="125" viewBox="0 0 196 125" fill="none" xmlns="http://www.w3.org/2000/svg">
<g clip-path="url(#clip0_1415_1297)">
<path d="M41.5917 29.4368L49.0044 39.5628C49.0044 39.5628 55.3244 42.2222 62.7108 47.562L60.9427 50.324C60.9427 50.324 48.7509 45.3283 45.6309 43.2174L39.9336 34.2795L41.5917 29.4368Z" fill="#A0616A"/>
<path d="M67.1436 52.4665C67.8511 51.4305 67.0111 49.6242 65.2676 48.432C63.524 47.2397 61.5371 47.113 60.8297 48.1489C60.1223 49.1849 60.9622 50.9912 62.7058 52.1834C64.4493 53.3757 66.4362 53.5024 67.1436 52.4665Z" fill="#A0616A"/>
<path d="M37.9668 20.7923L40.3927 20.1038C40.3927 20.1038 41.8048 20.1065 42.6014 21.4944C43.3981 22.8824 49.0386 35.2576 48.7712 35.737C48.5038 36.2164 48.1306 36.3223 48.6097 36.5899C49.0888 36.8574 49.5274 36.7218 49.2009 37.1227C48.8744 37.5236 49.3256 38.4043 49.3256 38.4043L43.1029 42.9986L37.9668 20.7923V20.7923Z" fill="#66BD5A"/>
<path d="M28.5553 122.552L31.5148 122.551L32.9227 111.128L28.5547 111.128L28.5553 122.552Z" fill="#A0616A"/>
<path d="M38.6955 122.484C38.7877 122.64 38.8363 123.141 38.8363 123.322C38.8363 123.877 38.3866 124.327 37.8318 124.327H28.6664C28.288 124.327 27.9812 124.02 27.9812 123.641V123.259C27.9812 123.259 27.5278 122.112 28.4613 120.697C28.4613 120.697 29.6214 121.805 31.3551 120.07L31.8663 119.143L35.5669 121.851L37.6181 122.104C38.0668 122.159 38.4647 122.095 38.6955 122.484V122.484Z" fill="#2F2E41"/>
<path d="M39.2676 119.666L42.1863 120.156L45.4661 109.124L41.1584 108.4L39.2676 119.666Z" fill="#A0616A"/>
<path d="M49.279 121.281C49.3442 121.449 49.3092 121.951 49.2793 122.129C49.1873 122.677 48.6693 123.046 48.1222 122.954L39.0835 121.435C38.7103 121.372 38.4586 121.018 38.5213 120.645L38.5845 120.268C38.5845 120.268 38.3274 119.061 39.4822 117.821C39.4822 117.821 40.443 119.106 42.4398 117.682L43.0974 116.853L46.2985 120.137L48.2795 120.727C48.7129 120.856 49.1158 120.859 49.279 121.281H49.279Z" fill="#2F2E41"/>
<path d="M45.3342 61.05C45.3342 61.05 49.3105 65.7085 49.3105 69.9787C49.3105 74.2489 49.4075 87.6633 49.4075 87.6633C49.4075 87.6633 47.0799 108.605 46.498 110.352C45.9161 112.099 45.6251 115.01 45.6251 115.01L40.0001 113.651C40.0001 113.651 39.2242 93.9502 41.5518 89.2917L35.9268 73.3755L33.9871 118.407H27.4572C27.4572 118.407 24.0948 94.7266 25.8405 88.5153C25.8405 88.5153 21.9612 64.835 22.931 63.4763C23.9009 62.1176 45.3342 61.05 45.3342 61.05Z" fill="#2F2E41"/>
<path d="M30.8837 14.6599L36.1208 15.0481L37.8665 17.9596C37.8665 17.9596 41.9398 19.7065 42.5217 22.2299C43.1036 24.7532 43.2976 54.2565 43.2976 54.2565L46.2071 58.5267L46.0131 62.2146L22.7371 63.3793V59.8335L20.6035 55.6152C20.6035 55.6152 22.9311 21.8416 23.513 21.6475C24.0949 21.4534 28.5561 18.3478 28.5561 18.3478L30.8837 14.6599V14.6599Z" fill="#66BD5A"/>
<path d="M33.255 13.9376C36.8973 13.9376 39.8499 10.983 39.8499 7.3382C39.8499 3.69344 36.8973 0.73877 33.255 0.73877C29.6128 0.73877 26.6602 3.69344 26.6602 7.3382C26.6602 10.983 29.6128 13.9376 33.255 13.9376Z" fill="#A0616A"/>
<path d="M38.5224 2.03003C38.1869 1.07764 37.2559 0.499842 36.247 0.522348C36.2042 0.523291 36.1615 0.522895 36.1192 0.521156C35.6111 0.500367 35.1234 0.326708 34.6252 0.224831C33.6966 0.0349424 32.7176 0.0985172 31.8213 0.40688C31.5428 0.502736 31.2638 0.623271 30.9692 0.623304C30.6747 0.623345 30.3538 0.4617 30.2819 0.175826C30.2649 0.434652 30.2479 0.693463 30.2309 0.952274C30.135 0.742798 30.0391 0.533307 29.9433 0.32382L29.7513 1.15923L29.1362 0.461041C29.1912 0.76878 29.0119 1.07895 28.7692 1.2757C28.5264 1.47246 28.2266 1.5813 27.9392 1.70388C26.6988 2.23297 25.5341 3.16973 25.1767 4.4708C24.9509 5.2928 25.069 6.1652 25.1887 7.00924C25.2945 7.75541 25.4095 8.52737 25.8148 9.16254C26.0746 9.56972 26.4491 9.91235 26.6073 10.3688C26.7547 10.7943 26.6989 11.2814 26.9087 11.6798C27.1194 12.0799 27.5543 12.3063 27.98 12.4584C28.4057 12.6105 28.8582 12.718 29.2248 12.9826C29.5914 13.2473 30.0168 14.0095 30.8155 13.9685L31.0733 13.4839C31.3385 13.2677 30.3571 13.4391 30.3468 13.097C30.3366 12.7548 31.5277 12.5435 31.3589 12.2457C31.1 11.7892 30.7498 11.3919 30.458 10.9556C30.1169 10.4454 29.8486 9.84923 29.9663 9.2265C30.0121 8.98425 30.1254 8.75543 30.298 8.57946C30.7955 8.07218 31.3502 8.29515 31.8893 8.36771C32.2608 8.41777 32.7046 8.35998 32.8976 8.03828C33.1233 7.6619 32.8717 7.1831 32.9025 6.74525C32.9351 6.2813 33.2863 5.90086 33.6686 5.63635C34.0509 5.37185 34.485 5.17914 34.8289 4.8663C35.1727 4.55344 35.4177 4.06467 35.2678 3.62445C36.8979 2.9453 37.1475 2.88107 38.8641 3.29523C38.7823 2.86566 38.6677 2.44242 38.5224 2.03003L38.5224 2.03003Z" fill="#2F2E41"/>
<path d="M10.6797 86.4362V66.4047C10.6797 65.8553 10.9137 65.3294 11.3218 64.9619C11.7298 64.5944 12.2768 64.4166 12.823 64.4742C17.8819 63.7931 22.6466 64.117 26.9647 65.9664C27.4539 65.9664 27.8518 66.3646 27.8518 66.854V86.9556C27.8518 87.445 27.4539 87.8432 26.9647 87.8432C22.2115 86.7277 17.1981 87.0181 12.0857 87.8432C11.3104 87.8432 10.6797 87.212 10.6797 86.4362Z" fill="#E6E6E6"/>
<path d="M10.6797 88.2195V67.9763C10.6797 66.9058 11.5499 66.035 12.6196 66.035C17.4572 64.7684 22.239 64.7662 26.9647 66.035C27.4539 66.035 27.8518 66.4332 27.8518 66.9227V86.8184C27.8518 87.3071 27.455 87.7049 26.9669 87.7061C22.3072 86.8948 17.3158 87.6849 12.0857 89.6265C11.3104 89.6265 10.6797 88.9953 10.6797 88.2195Z" fill="#F2F2F2"/>
<path d="M21.8507 74.4005H17.3271C15.7025 74.4005 14.3809 73.0781 14.3809 71.4524C14.3809 69.8266 15.7025 68.5039 17.3271 68.5039H21.8507C23.4754 68.5039 24.7971 69.8266 24.7971 71.4524C24.7971 73.0781 23.4754 74.4005 21.8507 74.4005Z" fill="#E6E6E6"/>
<path d="M25.9981 34.6404L25.8252 45.0916C25.8252 45.0916 25.2726 53.2366 23.9002 62.4028L20.6289 62.6116C20.6289 62.6116 21.0314 48.2998 20.8848 44.5339L21.1161 36.1695L25.9981 34.6404H25.9981Z" fill="#A0616A"/>
<path d="M22.5717 68.8811C23.8249 68.8384 24.7826 67.0918 24.7108 64.9798C24.6391 62.8678 23.5651 61.1903 22.312 61.2329C21.0588 61.2755 20.1011 63.0222 20.1729 65.1342C20.2446 67.2461 21.3186 68.9237 22.5717 68.8811Z" fill="#A0616A"/>
<path d="M25.9455 21.3347L23.4256 21.4266C23.4256 21.4266 22.0829 21.864 21.7517 23.4299C21.4205 24.9958 19.0988 41.2014 19.5006 41.5753C19.9024 41.9491 20.2901 41.9349 19.9166 42.337C19.543 42.7391 19.0839 42.7451 19.5179 43.026C19.9519 43.3069 19.7933 44.2838 19.7933 44.2838L26.7628 43.7897L25.9455 21.3347Z" fill="#66BD5A"/>
<path d="M192.203 114.709H125.156C124.767 114.709 124.382 114.649 124.011 114.532L123.972 114.516C102.978 104.076 84.9788 98.3772 68.9451 97.0952L68.8841 97.0831C67.298 96.581 66.2324 95.1252 66.2324 93.4606V3.80277C66.2324 2.57852 66.7985 1.46134 67.7854 0.737848C68.7724 0.0143534 70.0074 -0.18866 71.1743 0.180198L124.177 16.9568C124.494 17.0573 124.824 17.1081 125.156 17.1081H192.203C194.296 17.1081 196 18.8126 196 20.9075V110.91C196 113.005 194.296 114.709 192.203 114.709ZM124.197 114.014C124.508 114.111 124.831 114.159 125.156 114.159H192.203C193.993 114.159 195.45 112.702 195.45 110.91V20.9075C195.45 19.1156 193.993 17.6577 192.203 17.6577H125.156C124.768 17.6577 124.383 17.5983 124.011 17.4809L71.0086 0.704303C70.0106 0.388176 68.9542 0.562341 68.11 1.18118C67.2658 1.80014 66.7816 2.75563 66.7816 3.80277V93.4606C66.7816 94.8743 67.68 96.1117 69.0207 96.5499C85.1125 97.8423 103.162 103.555 124.197 114.014L124.197 114.014Z" fill="#3F3D56"/>
<path d="M126.947 110.638C145.227 104.164 165.621 104.907 187.287 109.992C190.007 110.63 192.614 108.581 192.614 105.785V23.864C192.614 21.8746 191.259 20.1352 189.328 19.6627C166.473 14.0698 145.125 13.0408 126.311 19.6867C124.933 20.1736 123.403 19.9098 122.24 19.0239C106.386 6.94753 90.1614 0.892545 73.4519 2.69042C71.266 2.92562 69.6172 4.78981 69.6172 6.98985V89.8047C69.6172 92.0221 71.2938 93.8762 73.4978 94.1056C91.483 95.9774 108.009 101.65 123.379 110.338C124.467 110.953 125.768 111.055 126.947 110.638Z" fill="#F2F2F2"/>
<path d="M126.361 106.044C125.116 106.044 123.89 105.701 122.809 105.03C109.901 97.0077 95.8385 92.3213 81.0116 91.1008C77.5355 90.8145 74.8125 87.8475 74.8125 84.346V13.6085C74.8125 9.97793 77.6262 7.00303 81.2182 6.83598C92.0132 6.33227 105.121 11.1497 122.466 21.9913C123.933 22.9081 125.717 23.1804 127.361 22.7392C143.845 18.3113 161.714 18.1819 181.99 22.3438C185.137 22.99 187.422 25.7857 187.422 28.9917V98.0379C187.422 100.121 186.485 102.057 184.853 103.347C183.208 104.648 181.091 105.114 179.045 104.626C159.865 100.058 143.395 100.388 128.693 105.636C127.93 105.909 127.141 106.044 126.361 106.044ZM82.7593 7.35015C82.2483 7.35015 81.7442 7.36169 81.2437 7.38504C77.9454 7.53841 75.3617 10.272 75.3617 13.6085V84.346C75.3617 87.5636 77.8632 90.2901 81.0566 90.5529C95.9712 91.7809 110.116 96.4943 123.099 104.563C124.714 105.567 126.686 105.769 128.509 105.119L128.601 105.378L128.509 105.119C143.313 99.8338 159.886 99.4978 179.172 104.092C181.054 104.54 183 104.112 184.512 102.916C186.012 101.73 186.873 99.9524 186.873 98.0379V28.9917C186.873 26.0455 184.773 23.4761 181.879 22.8821C161.689 18.7375 143.903 18.8645 127.504 23.27C125.713 23.7506 123.771 23.4548 122.175 22.4574C105.737 12.1832 93.1499 7.35015 82.7593 7.35015Z" fill="white"/>
<path d="M125.114 23.1497L124.564 23.1548L125.329 105.918L125.878 105.913L125.114 23.1497Z" fill="white"/>
<path d="M80.1666 17.6878L79.9941 18.2095L118.449 30.9421L118.621 30.4205L80.1666 17.6878Z" fill="#3F3D56"/>
<path d="M80.1666 27.8741L79.9941 28.3958L118.449 41.1284L118.621 40.6068L80.1666 27.8741Z" fill="#3F3D56"/>
<path d="M80.1666 38.0601L79.9941 38.5818L118.449 51.3145L118.621 50.7928L80.1666 38.0601Z" fill="#3F3D56"/>
<path d="M80.1666 48.2464L79.9941 48.7681L118.449 61.5007L118.621 60.9791L80.1666 48.2464Z" fill="#3F3D56"/>
<path d="M180.456 30.9727H134.367V31.5223H180.456V30.9727Z" fill="#3F3D56"/>
<path d="M180.456 40.5928H134.367V41.1424H180.456V40.5928Z" fill="#3F3D56"/>
<path d="M180.456 50.2129H134.367V50.7625H180.456V50.2129Z" fill="#3F3D56"/>
<path d="M180.456 59.8333H134.367V60.3829H180.456V59.8333Z" fill="#3F3D56"/>
<path d="M180.456 69.4534H134.367V70.003H180.456V69.4534Z" fill="#3F3D56"/>
<path d="M180.456 79.074H134.367V79.6236H180.456V79.074Z" fill="#3F3D56"/>
<path d="M14.9 120.237C14.3327 120.272 14.0191 119.567 14.4483 119.156L14.491 118.986C14.4854 118.973 14.4798 118.959 14.4741 118.945C13.9003 117.576 11.9559 117.586 11.3871 118.957C10.8822 120.174 10.2394 121.393 10.0811 122.679C10.0101 123.247 10.0421 123.826 10.168 124.383C8.98497 121.797 8.36241 118.973 8.36241 116.133C8.36241 115.42 8.40144 114.706 8.48125 113.995C8.54688 113.412 8.63733 112.834 8.7544 112.261C9.38758 109.162 10.7586 106.21 12.7363 103.745C13.687 103.225 14.4798 102.412 14.9587 101.437C15.1307 101.086 15.2655 100.708 15.3294 100.323C15.2212 100.337 14.9214 98.688 15.003 98.5868C14.8522 98.3579 14.5824 98.2441 14.4177 98.0207C13.5987 96.9095 12.4704 97.1035 11.8814 98.6135C10.623 99.249 10.6109 100.303 11.383 101.317C11.8742 101.962 11.9417 102.834 12.3727 103.525C12.3283 103.581 12.2822 103.636 12.2379 103.693C11.4247 104.737 10.7214 105.859 10.1286 107.037C10.2961 105.727 10.0488 104.149 9.62703 103.132C9.14696 101.973 8.24714 100.997 7.45475 99.9955C6.50295 98.7921 4.55121 99.3173 4.38352 100.843C4.3819 100.858 4.38032 100.872 4.37877 100.887C4.49646 100.954 4.61177 101.024 4.7244 101.099C5.36684 101.524 5.14481 102.52 4.38359 102.638L4.36635 102.641C4.40893 103.065 4.48164 103.486 4.58806 103.899C3.57151 107.833 5.76616 109.266 8.89982 109.33C8.969 109.366 9.03641 109.401 9.10558 109.435C8.78809 110.33 8.53444 111.247 8.34645 112.177C8.17795 112.999 8.06088 113.83 7.99527 114.664C7.91367 115.716 7.92077 116.774 8.00946 117.825L8.00413 117.788C7.77889 116.63 7.151 115.549 6.23933 114.8C4.88122 113.684 2.96247 113.273 1.49731 112.376C0.792026 111.944 -0.111745 112.502 0.0113453 113.32L0.0173373 113.359C0.235495 113.448 0.448328 113.551 0.654076 113.666C0.771773 113.733 0.887076 113.803 0.99971 113.878C1.64215 114.303 1.42013 115.3 0.658901 115.417L0.64165 115.42C0.629238 115.422 0.618591 115.423 0.606195 115.425C0.980438 116.314 1.50188 117.14 2.15459 117.851C2.79021 121.286 5.52021 121.612 8.44045 120.611H8.44223C8.76149 122.003 9.22796 123.363 9.82747 124.658H14.776C14.7937 124.603 14.8097 124.546 14.8256 124.491C14.368 124.52 13.9069 124.493 13.4564 124.41C13.8235 123.959 14.1907 123.505 14.5578 123.054C14.5667 123.045 14.5738 123.036 14.5809 123.027C14.7671 122.796 14.9551 122.567 15.1413 122.337L15.1414 122.336C15.1531 121.628 15.0683 120.922 14.9001 120.237L14.9 120.237Z" fill="#F2F2F2"/>
<path d="M70.2484 124.673C70.2484 124.854 70.1028 125 69.9216 125H0.365847C0.184614 125 0.0390625 124.854 0.0390625 124.673C0.0390625 124.492 0.184614 124.346 0.365847 124.346H69.9216C70.1028 124.346 70.2484 124.492 70.2484 124.673Z" fill="#CCCCCC"/>
<path d="M182.392 107.289C185.88 107.289 188.708 104.46 188.708 100.969C188.708 97.4784 185.88 94.6487 182.392 94.6487C178.904 94.6487 176.076 97.4784 176.076 100.969C176.076 104.46 178.904 107.289 182.392 107.289Z" fill="#66BD5A"/>
<path d="M185.349 100.731L181.43 98.4667C181.247 98.3609 181.019 98.4931 181.019 98.7047V100.694H179.843C179.691 100.694 179.568 100.817 179.568 100.969C179.568 101.121 179.691 101.244 179.843 101.244H181.019V103.234C181.019 103.445 181.247 103.577 181.43 103.472L185.349 101.207C185.532 101.101 185.532 100.837 185.349 100.731Z" fill="white"/>
<path d="M92.4525 83.1529C92.6985 80.3363 93.8671 77.6456 95.7373 75.5281C97.5592 73.4654 100.049 72.0505 102.735 71.474C104.234 71.1523 105.787 71.0895 107.305 71.3062C107.668 71.3581 107.659 71.9355 107.291 71.8831C104.708 71.5142 102.037 71.9649 99.7154 73.1588C97.3357 74.3825 95.4311 76.3729 94.2545 78.773C93.5817 80.1455 93.1619 81.6435 93.0289 83.1665C92.9967 83.5351 92.4201 83.5237 92.4525 83.1529Z" fill="white"/>
<path d="M106.665 68.9904L111.103 71.1817C111.264 71.2614 111.291 71.5245 111.154 71.638L106.952 75.1135C106.668 75.3487 106.268 74.9331 106.554 74.696L110.756 71.2205L110.807 71.6768L106.368 69.4855C106.035 69.3209 106.334 68.8272 106.665 68.9904Z" fill="white"/>
</g>
<defs>
<clipPath id="clip0_1415_1297">
<rect width="196" height="125" fill="white"/>
</clipPath>
</defs>
</svg>
