<svg width="31" height="31" viewBox="0 0 31 31" fill="none" xmlns="http://www.w3.org/2000/svg">
<path d="M13.5156 6.2984C13.0463 6.8418 12.6619 7.29439 12.6619 7.30499C12.6619 7.32164 12.9646 7.58653 14.3496 8.78384C14.5782 8.98062 14.6463 9.03209 14.6493 9.01089C14.6523 8.99424 14.6357 8.74903 14.6145 8.46446C14.5933 8.17989 14.5767 7.92711 14.5767 7.90289C14.5767 7.8605 14.5797 7.85899 14.6947 7.84234C15.7104 7.69097 16.7563 7.73941 17.7508 7.98463C19.1464 8.32974 20.4255 9.05328 21.4412 10.0735C21.8211 10.4534 22.1132 10.8122 22.4084 11.2542C22.6082 11.5539 22.7051 11.7189 22.8852 12.0655L23.0154 12.3183L23.6466 11.961L24.2778 11.6023L24.1567 11.3677C23.6345 10.3671 22.9972 9.52857 22.1904 8.78233C20.8145 7.50933 19.0511 6.66773 17.2104 6.40435C16.7639 6.33926 16.5565 6.32413 16.0071 6.31656C15.4425 6.30899 15.1307 6.32413 14.6781 6.38165C14.5721 6.39527 14.4798 6.40132 14.4737 6.39678C14.4692 6.39073 14.4465 6.14854 14.4253 5.85792C14.4041 5.56881 14.3829 5.32662 14.3784 5.32056C14.3723 5.31602 13.9848 5.7565 13.5156 6.2984Z" fill="#484848"/>
<path d="M7.20054 5.63237C6.3332 5.73227 5.67476 6.23632 5.44316 6.97651C5.3584 7.24291 5.35083 7.32919 5.35083 7.96191C5.35083 8.56435 5.36143 8.69604 5.42803 8.9685C5.57031 9.5437 5.88667 10.0417 6.31655 10.3611C6.86753 10.7743 7.5063 10.8697 8.12085 10.6335C8.78081 10.3792 9.30605 9.74804 9.49072 8.98818C9.56187 8.68998 9.56943 8.61884 9.577 8.05273C9.5876 7.29589 9.5543 7.0749 9.3772 6.71162C9.12896 6.2 8.6688 5.84731 8.04668 5.6914C7.77119 5.62177 7.46694 5.60058 7.20054 5.63237Z" fill="#484848"/>
<path d="M8.03003 11.2193L7.75 11.4933V12.5862V13.6775L7.61074 13.8168L7.46997 13.9561L7.33828 13.8244L7.20508 13.6912L7.20356 12.6165C7.20356 12.0261 7.19902 11.5312 7.19297 11.519C7.1748 11.4782 6.6314 10.959 6.60869 10.959C6.59507 10.959 6.48457 10.9983 6.36196 11.0483C6.03804 11.177 5.80342 11.2496 5.28271 11.3828C4.77715 11.513 4.65151 11.5523 4.47896 11.6432C4.20347 11.7839 4.04302 12.0201 3.99761 12.3455C3.98096 12.456 3.79932 15.1186 3.79932 15.2351V15.2881H7.46997H11.1406L11.1331 15.223C11.1285 15.1882 11.0846 14.5388 11.0347 13.782C10.9832 13.0024 10.9333 12.3531 10.9196 12.2865C10.8697 12.0246 10.7577 11.846 10.5654 11.7158C10.3914 11.5978 10.2264 11.5357 9.78589 11.4267C9.14106 11.2647 8.90493 11.1906 8.53711 11.0347C8.41753 10.9847 8.31763 10.9438 8.3146 10.9438C8.31157 10.9438 8.18291 11.068 8.03003 11.2193Z" fill="#484848"/>
<path d="M23.2349 15.5454C22.4856 15.6498 21.8877 16.054 21.6092 16.6428C21.5456 16.7745 21.4896 16.9531 21.4533 17.1287C21.4291 17.2453 21.426 17.3452 21.426 17.8689C21.426 18.5213 21.4351 18.6257 21.5184 18.9481C21.7409 19.8034 22.4039 20.4785 23.1819 20.6389C23.5724 20.7191 23.9645 20.6631 24.3474 20.4724C25.0921 20.1031 25.5705 19.3402 25.6416 18.4062C25.6613 18.1429 25.6613 17.5374 25.6416 17.324C25.5947 16.8366 25.4267 16.4642 25.1058 16.1418C24.8242 15.8602 24.4549 15.668 24.0144 15.5757C23.8418 15.5393 23.3999 15.5227 23.2349 15.5454Z" fill="#484848"/>
<path d="M7.70608 18.3835C7.35188 18.5516 7.06126 18.6954 7.05823 18.7044C7.04915 18.7287 7.2096 19.0995 7.36399 19.4128C8.75657 22.2479 11.5024 24.1854 14.6463 24.5502C15.0792 24.6017 15.4409 24.6168 15.9314 24.6078C16.1811 24.6017 16.4006 24.5941 16.4203 24.5881L16.4536 24.579V25.1436V25.7097L17.3951 24.7667L18.3381 23.8252L17.3951 22.8837L16.4536 21.9407V22.534V23.1274L16.3976 23.1395C16.3658 23.1456 16.0676 23.1516 15.7346 23.1516C15.1019 23.1516 14.946 23.141 14.4858 23.0668C11.9761 22.6687 9.81311 21.0809 8.68089 18.8074C8.59461 18.6318 8.48865 18.4062 8.44778 18.3048C8.40691 18.2034 8.36756 18.1096 8.35999 18.099C8.35091 18.0823 8.20257 18.1474 7.70608 18.3835Z" fill="#484848"/>
<path d="M22.4705 20.9432C22.1708 21.0688 21.9119 21.1505 21.373 21.2898C20.6465 21.476 20.5208 21.5274 20.3271 21.7212C20.15 21.8968 20.0849 22.0542 20.0562 22.3796C20.0486 22.4705 20.0032 23.1153 19.9578 23.8101C19.9124 24.5048 19.8715 25.1027 19.8669 25.1375L19.8594 25.2026H23.53H27.2007V25.1436C27.2007 25.0225 27.019 22.3751 27.0024 22.2601C26.957 21.9346 26.8011 21.7061 26.5256 21.5592C26.3667 21.476 26.2032 21.423 25.7294 21.3034C25.2526 21.1838 24.9423 21.0854 24.629 20.9553L24.3974 20.8584L24.3565 20.8872C24.3353 20.9038 24.2066 21.0279 24.0719 21.1642L23.8252 21.4109V22.4992L23.8237 23.5875L23.6859 23.7298L23.5467 23.8706L23.4059 23.7313L23.2651 23.5906L23.2636 22.5007V21.4109L22.976 21.1339C22.8186 20.9825 22.6839 20.8584 22.6778 20.8599C22.6718 20.8599 22.5794 20.8978 22.4705 20.9432Z" fill="#484848"/>
</svg>
